<svg width="67" height="61" viewBox="0 0 67 61" fill="none" xmlns="http://www.w3.org/2000/svg">
<path d="M9.93381 2.86671C0.733806 8.73338 -2.06619 19.9334 2.46714 32.4667C3.53381 35.6667 5.66714 42.4667 7.00047 47.6667C9.66714 57.5334 12.0671 60.3334 17.5338 60.3334C22.7338 60.2 25.4005 57.5334 27.9338 49.8L30.2005 42.7334L32.0671 47.9334C35.8005 58.0667 36.3338 59 39.8005 59.8C46.7338 61.5334 50.0671 59 52.7338 50.3334C54.0671 45.9334 55.8005 40.0667 56.6005 37.2667C58.4671 31.1334 57.6671 30.2 52.4671 32.8667C49.0005 34.7334 48.3338 36.0667 47.5338 41.6667C46.0671 53.1334 41.4005 55.8 39.5338 46.3334C38.4671 40.0667 34.2005 35 30.3338 35C26.4671 35 22.2005 40.0667 21.1338 46.3334C20.6005 48.8667 19.5338 51.2667 18.7338 51.8C16.7338 53.1334 13.6671 48.6 13.6671 44.0667C13.6671 42.0667 12.4671 37.4 11.0005 33.6667C7.13381 23.9334 7.40047 15.8 11.8005 11.4C14.7338 8.46671 16.0671 8.06671 21.1338 8.73338C24.7338 9.13338 28.4671 10.4667 30.2005 12.2C34.4671 16.2 39.0005 15.9334 39.0005 11.6667C39.0005 8.86671 39.6671 8.33338 42.7338 8.33338C44.7338 8.33338 47.1338 9.00004 47.9338 9.80005C49.6671 11.5334 56.3338 9.93338 56.3338 7.53338C56.3338 6.60004 53.8005 4.46671 50.7338 2.86671C46.3338 0.600044 43.8005 0.200043 38.4671 0.866711C30.3338 1.93338 30.8671 1.93338 21.6671 1.00005C15.6671 0.333378 13.5338 0.733379 9.93381 2.86671Z" fill="black"/>
<path d="M56.3337 11.9334C47.267 16.0667 47.5337 15.8 49.667 18.2C51.0003 19.9334 50.7337 20.8667 48.467 23.8C42.467 31.4 45.667 32.8667 57.1337 27.6667C63.667 24.7334 64.3337 24.0667 63.5337 21C63.0003 18.8667 63.5337 17 64.867 15.6667C67.4003 13.1334 67.667 8.33335 65.4003 8.46669C64.467 8.46669 60.3337 10.0667 56.3337 11.9334Z" fill="black"/>
</svg>
