<svg width="61" height="62" viewBox="0 0 61 62" fill="none" xmlns="http://www.w3.org/2000/svg">
<path d="M3.28429 32.8467L3.28427 32.8467L3.28271 32.8418C-0.892383 19.6875 1.57838 8.14227 10.3015 3.50272C11.072 3.08566 12.2062 2.7518 13.5533 2.47837C14.9172 2.20152 16.5562 1.97588 18.3704 1.79884C21.9997 1.44466 26.3699 1.28126 30.7225 1.3017C35.0751 1.32215 39.4254 1.52651 43.0151 1.91153C44.8093 2.10398 46.4238 2.34263 47.7584 2.62886C49.0743 2.91107 50.1791 3.2517 50.9142 3.67445C53.3806 5.06874 55.5691 7.72091 57.1363 10.7638C58.7083 13.8159 59.7 17.3466 59.7 20.5742C59.7 21.9579 59.327 24.3838 58.7501 27.1134C58.1692 29.8622 57.368 32.9799 56.4854 35.7734C55.6147 38.5291 54.8234 41.3652 54.2506 43.7115C53.9641 44.8849 53.7335 45.9306 53.575 46.7795C53.4137 47.6437 53.3358 48.2595 53.3358 48.5958C53.3358 49.7675 52.9074 51.1014 52.2672 52.4046C51.6208 53.7204 50.7293 55.0639 49.7355 56.2703C48.7426 57.4756 47.6314 58.564 46.5356 59.3577C45.4632 60.1346 44.309 60.7 43.2487 60.7C41.0488 60.7 39.0396 59.4311 37.3174 57.3277C35.5922 55.2206 34.0864 52.1996 32.8777 48.4867L32.8731 48.4725L32.8691 48.4581C32.4015 46.7825 31.8207 45.281 31.2703 44.2121C30.9934 43.6744 30.737 43.2714 30.5221 43.0136C30.4588 42.9377 30.4049 42.8814 30.3612 42.8409C30.3175 42.8814 30.2636 42.9377 30.2003 43.0136C29.9854 43.2714 29.729 43.6744 29.4522 44.2121C28.9018 45.281 28.3209 46.7825 27.8534 48.4581L27.8494 48.4725L27.8448 48.4867C26.5156 52.5696 24.897 55.6497 23.112 57.6912C21.3264 59.7334 19.3111 60.7999 17.2272 60.6576C15.153 60.5161 13.2261 59.1906 11.5781 56.93C9.92676 54.6648 8.49535 51.3858 7.40849 47.1403L7.40672 47.1334L7.40509 47.1264C6.45713 43.0819 4.55492 36.7499 3.28429 32.8467ZM30.2574 42.7606C30.2574 42.7606 30.2585 42.7612 30.2608 42.7622C30.2585 42.761 30.2574 42.7605 30.2574 42.7606ZM30.4616 42.7623C30.4639 42.7613 30.4651 42.7606 30.4651 42.7606C30.4651 42.7605 30.4639 42.761 30.4616 42.7623ZM31.1764 10.8401L31.1745 10.8385C28.1281 8.18699 24.1148 6.81297 20.2673 6.75417C16.4151 6.69529 12.8109 7.9528 10.5131 10.4563C8.60304 12.5636 7.42962 16.2814 7.1946 20.7333C6.96091 25.1601 7.66286 30.1966 9.37945 34.8306L9.38432 34.8438L9.38866 34.8571L9.39316 34.8709C10.5042 38.284 12.4168 44.1592 13.3776 47.9287C14.0432 50.3728 14.8112 52.1251 15.6006 53.2356C16.3992 54.3592 17.1174 54.696 17.6862 54.6584C18.2828 54.619 19.0461 54.1525 19.8817 52.897C20.7024 51.6638 21.5033 49.7969 22.2091 47.2673L22.209 47.2673L22.2111 47.26C23.2179 43.7961 24.4308 41.1422 25.7781 39.3387C27.119 37.5436 28.6738 36.4917 30.3612 36.4917C32.0486 36.4917 33.6035 37.5436 34.9444 39.3387C36.2916 41.1422 37.5045 43.7961 38.5113 47.26L38.5113 47.26L38.5134 47.2673C39.2192 49.7969 40.02 51.6638 40.8407 52.897C41.6763 54.1525 42.4396 54.619 43.0363 54.6584C43.605 54.696 44.3232 54.3592 45.1219 53.2356C45.9112 52.1251 46.6792 50.3728 47.3449 47.9288C48.3025 44.1709 50.0558 38.1305 51.3373 34.5206C54.094 26.2104 54.3266 19.2671 52.4794 14.4507C51.5598 12.0528 50.1274 10.1855 48.2311 8.91393C46.3336 7.64162 43.9291 6.93752 41.0212 6.93752C39.6683 6.93752 38.654 6.95823 37.9073 7.02862C37.1276 7.10212 36.7718 7.22145 36.6272 7.32181C36.5997 7.34085 36.589 7.35343 36.5861 7.35713C36.5838 7.35998 36.5832 7.36119 36.5821 7.36433C36.5793 7.37244 36.564 7.42548 36.5875 7.56245C36.6388 7.86167 36.8263 8.31165 37.1875 9.01022C37.8357 10.2549 38.2168 11.3023 38.2832 12.1087C38.3166 12.5146 38.2767 12.9319 38.0794 13.2886C37.8657 13.6752 37.5127 13.908 37.1016 13.9904C36.7194 14.067 36.3079 14.0117 35.9073 13.8949C35.4991 13.7759 35.0513 13.5778 34.5725 13.3137C33.6149 12.7855 32.4703 11.958 31.1764 10.8401Z" fill="black" stroke="black" stroke-width="1.4"/>
</svg>
